<mxfile host="65bd71144e">
    <diagram id="Egy9BAFYMkn-7ry84wOl" name="Page-1">
        <mxGraphModel dx="1133" dy="446" grid="1" gridSize="10" guides="1" tooltips="1" connect="1" arrows="1" fold="1" page="1" pageScale="1" pageWidth="850" pageHeight="1100" math="0" shadow="0">
            <root>
                <mxCell id="0"/>
                <mxCell id="1" parent="0"/>
                <object label="Extracción" placeholders="1" id="2">
                    <mxCell style="rounded=0;whiteSpace=wrap;html=1;" vertex="1" parent="1">
                        <mxGeometry x="40" y="360" width="120" height="30" as="geometry"/>
                    </mxCell>
                </object>
                <mxCell id="3" value="Tabla HTML" style="text;html=1;align=center;verticalAlign=middle;whiteSpace=wrap;rounded=0;" vertex="1" parent="1">
                    <mxGeometry x="70" y="400" width="60" height="30" as="geometry"/>
                </mxCell>
                <object label="Respaldo" placeholders="1" id="4">
                    <mxCell style="rounded=0;whiteSpace=wrap;html=1;" vertex="1" parent="1">
                        <mxGeometry x="360" y="360" width="120" height="30" as="geometry"/>
                    </mxCell>
                </object>
                <mxCell id="5" value="DB" style="text;html=1;align=center;verticalAlign=middle;whiteSpace=wrap;rounded=0;" vertex="1" parent="1">
                    <mxGeometry x="395" y="400" width="60" height="30" as="geometry"/>
                </mxCell>
                <object label="Preprocesamiento" placeholders="1" id="6">
                    <mxCell style="rounded=0;whiteSpace=wrap;html=1;" vertex="1" parent="1">
                        <mxGeometry x="200" y="360" width="120" height="30" as="geometry"/>
                    </mxCell>
                </object>
                <mxCell id="7" value="DataFrame" style="text;html=1;align=center;verticalAlign=middle;whiteSpace=wrap;rounded=0;" vertex="1" parent="1">
                    <mxGeometry x="230" y="400" width="60" height="30" as="geometry"/>
                </mxCell>
                <object label="Auditoria" placeholders="1" id="8">
                    <mxCell style="rounded=0;whiteSpace=wrap;html=1;" vertex="1" parent="1">
                        <mxGeometry x="520" y="360" width="120" height="30" as="geometry"/>
                    </mxCell>
                </object>
                <mxCell id="9" value="Logs" style="text;html=1;align=center;verticalAlign=middle;whiteSpace=wrap;rounded=0;" vertex="1" parent="1">
                    <mxGeometry x="555" y="400" width="60" height="30" as="geometry"/>
                </mxCell>
                <mxCell id="12" value="" style="rounded=0;whiteSpace=wrap;html=1;" vertex="1" parent="1">
                    <mxGeometry x="160" y="40" width="480" height="240" as="geometry"/>
                </mxCell>
                <mxCell id="14" value="" style="dashed=0;outlineConnect=0;html=1;align=center;labelPosition=center;verticalLabelPosition=bottom;verticalAlign=top;shape=mxgraph.webicons.yahoo;fillColor=#AC37AE;gradientColor=#2E0E2D" vertex="1" parent="1">
                    <mxGeometry x="27.6" y="120" width="92.4" height="70" as="geometry"/>
                </mxCell>
                <mxCell id="15" value="WEB" style="text;html=1;align=center;verticalAlign=middle;whiteSpace=wrap;rounded=0;" vertex="1" parent="1">
                    <mxGeometry x="40" y="80" width="60" height="30" as="geometry"/>
                </mxCell>
                <mxCell id="16" value="" style="image;html=1;image=img/lib/clip_art/finance/Dollar_128x128.png" vertex="1" parent="1">
                    <mxGeometry x="45" y="190" width="50" height="40" as="geometry"/>
                </mxCell>
                <mxCell id="17" value="Yahoo Finances&lt;div&gt;(Dollar)&lt;/div&gt;" style="text;html=1;align=center;verticalAlign=middle;whiteSpace=wrap;rounded=0;" vertex="1" parent="1">
                    <mxGeometry x="43.80000000000001" y="240" width="60" height="30" as="geometry"/>
                </mxCell>
                <mxCell id="18" value="List" style="swimlane;fontStyle=0;childLayout=stackLayout;horizontal=1;startSize=30;horizontalStack=0;resizeParent=1;resizeParentMax=0;resizeLast=0;collapsible=1;marginBottom=0;whiteSpace=wrap;html=1;" vertex="1" parent="1">
                    <mxGeometry x="193" y="120" width="140" height="120" as="geometry"/>
                </mxCell>
                <mxCell id="19" value="Item 1" style="text;strokeColor=none;fillColor=none;align=left;verticalAlign=middle;spacingLeft=4;spacingRight=4;overflow=hidden;points=[[0,0.5],[1,0.5]];portConstraint=eastwest;rotatable=0;whiteSpace=wrap;html=1;" vertex="1" parent="18">
                    <mxGeometry y="30" width="140" height="30" as="geometry"/>
                </mxCell>
                <mxCell id="20" value="Item 2" style="text;strokeColor=none;fillColor=none;align=left;verticalAlign=middle;spacingLeft=4;spacingRight=4;overflow=hidden;points=[[0,0.5],[1,0.5]];portConstraint=eastwest;rotatable=0;whiteSpace=wrap;html=1;" vertex="1" parent="18">
                    <mxGeometry y="60" width="140" height="30" as="geometry"/>
                </mxCell>
                <mxCell id="21" value="Item 3" style="text;strokeColor=none;fillColor=none;align=left;verticalAlign=middle;spacingLeft=4;spacingRight=4;overflow=hidden;points=[[0,0.5],[1,0.5]];portConstraint=eastwest;rotatable=0;whiteSpace=wrap;html=1;" vertex="1" parent="18">
                    <mxGeometry y="90" width="140" height="30" as="geometry"/>
                </mxCell>
                <mxCell id="22" value="" style="strokeWidth=2;html=1;shape=mxgraph.flowchart.database;whiteSpace=wrap;" vertex="1" parent="1">
                    <mxGeometry x="386" y="120" width="60" height="60" as="geometry"/>
                </mxCell>
                <mxCell id="23" value="Transformación" style="text;html=1;align=center;verticalAlign=middle;whiteSpace=wrap;rounded=0;" vertex="1" parent="1">
                    <mxGeometry x="233" y="250" width="60" height="30" as="geometry"/>
                </mxCell>
                <mxCell id="24" value="Validación" style="text;html=1;align=center;verticalAlign=middle;whiteSpace=wrap;rounded=0;" vertex="1" parent="1">
                    <mxGeometry x="386" y="250" width="60" height="30" as="geometry"/>
                </mxCell>
                <mxCell id="25" value="Monitoreo" style="text;html=1;align=center;verticalAlign=middle;whiteSpace=wrap;rounded=0;" vertex="1" parent="1">
                    <mxGeometry x="550" y="250" width="60" height="30" as="geometry"/>
                </mxCell>
                <mxCell id="26" value="" style="shape=step;perimeter=stepPerimeter;whiteSpace=wrap;html=1;fixedSize=1;" vertex="1" parent="1">
                    <mxGeometry x="120" y="290" width="100" height="30" as="geometry"/>
                </mxCell>
                <mxCell id="27" value="" style="shape=step;perimeter=stepPerimeter;whiteSpace=wrap;html=1;fixedSize=1;" vertex="1" parent="1">
                    <mxGeometry x="210" y="290" width="120" height="30" as="geometry"/>
                </mxCell>
                <mxCell id="28" value="" style="shape=step;perimeter=stepPerimeter;whiteSpace=wrap;html=1;fixedSize=1;" vertex="1" parent="1">
                    <mxGeometry x="320" y="290" width="110" height="30" as="geometry"/>
                </mxCell>
                <mxCell id="29" value="Enriquecimiento" style="text;html=1;align=center;verticalAlign=middle;whiteSpace=wrap;rounded=0;" vertex="1" parent="1">
                    <mxGeometry x="244" y="290" width="60" height="30" as="geometry"/>
                </mxCell>
                <mxCell id="31" value="Exploración" style="text;html=1;align=center;verticalAlign=middle;whiteSpace=wrap;rounded=0;" vertex="1" parent="1">
                    <mxGeometry x="350" y="290" width="60" height="30" as="geometry"/>
                </mxCell>
                <mxCell id="33" value="Limpieza" style="text;html=1;align=center;verticalAlign=middle;whiteSpace=wrap;rounded=0;" vertex="1" parent="1">
                    <mxGeometry x="150" y="290" width="60" height="30" as="geometry"/>
                </mxCell>
                <mxCell id="34" value="" style="html=1;verticalLabelPosition=bottom;align=center;labelBackgroundColor=#ffffff;verticalAlign=top;strokeWidth=2;strokeColor=#0080F0;shadow=0;dashed=0;shape=mxgraph.ios7.icons.monitor;" vertex="1" parent="1">
                    <mxGeometry x="540" y="120" width="70" height="50" as="geometry"/>
                </mxCell>
                <mxCell id="35" style="edgeStyle=none;html=1;" edge="1" parent="1" source="14">
                    <mxGeometry relative="1" as="geometry">
                        <mxPoint x="190" y="155" as="targetPoint"/>
                    </mxGeometry>
                </mxCell>
                <mxCell id="36" style="edgeStyle=none;html=1;entryX=-0.033;entryY=0.722;entryDx=0;entryDy=0;entryPerimeter=0;" edge="1" parent="1" source="19" target="22">
                    <mxGeometry relative="1" as="geometry"/>
                </mxCell>
                <mxCell id="37" style="edgeStyle=none;html=1;entryX=0.792;entryY=0.458;entryDx=0;entryDy=0;entryPerimeter=0;" edge="1" parent="1" source="22" target="12">
                    <mxGeometry relative="1" as="geometry"/>
                </mxCell>
                <mxCell id="38" value="" style="image;aspect=fixed;html=1;points=[];align=center;fontSize=12;image=img/lib/azure2/power_platform/PowerBI.svg;" vertex="1" parent="1">
                    <mxGeometry x="712" y="120" width="51" height="68" as="geometry"/>
                </mxCell>
                <mxCell id="39" value="BI" style="text;html=1;align=center;verticalAlign=middle;whiteSpace=wrap;rounded=0;" vertex="1" parent="1">
                    <mxGeometry x="712" y="250" width="60" height="30" as="geometry"/>
                </mxCell>
                <mxCell id="40" style="edgeStyle=none;html=1;entryX=0;entryY=0.368;entryDx=0;entryDy=0;entryPerimeter=0;" edge="1" parent="1" source="34" target="38">
                    <mxGeometry relative="1" as="geometry"/>
                </mxCell>
                <object label="Ánalisis" placeholders="1" id="41">
                    <mxCell style="rounded=0;whiteSpace=wrap;html=1;" vertex="1" parent="1">
                        <mxGeometry x="680" y="360" width="120" height="30" as="geometry"/>
                    </mxCell>
                </object>
            </root>
        </mxGraphModel>
    </diagram>
</mxfile>